<svg width="100%"  height="100%"  version="1.1" style="background: #F5984C; transform: translate(95%, 40%) rotate(90deg);" xmlns="http://www.w3.org/2000/svg" xmlns:xlink="http://www.w3.org/1999/xlink">
<title>CTA-arrow-white</title>
<g id="Canvas" >
<use xlink:href="#stroke" transform="translate(3 3)" fill="#FFFFFF"/>
</g>
<defs>
<path id="stroke" d="M -0.707107 11.2929C -1.09763 11.6834 -1.09763 12.3166 -0.707107 12.7071C -0.316583 13.0976 0.316583 13.0976 0.707107 12.7071L -0.707107 11.2929ZM 6 6L 6.70711 6.70711C 7.09763 6.31658 7.09763 5.68342 6.70711 5.29289L 6 6ZM 0.707107 -0.707107C 0.316583 -1.09763 -0.316583 -1.09763 -0.707107 -0.707107C -1.09763 -0.316583 -1.09763 0.316583 -0.707107 0.707107L 0.707107 -0.707107ZM 0.707107 12.7071L 6.70711 6.70711L 5.29289 5.29289L -0.707107 11.2929L 0.707107 12.7071ZM 6.70711 5.29289L 0.707107 -0.707107L -0.707107 0.707107L 5.29289 6.70711L 6.70711 5.29289Z"/>
</defs>
</svg>
